<svg xmlns="http://www.w3.org/2000/svg" viewBox="0 0 61.19 49.72"><defs><style>.cls-1{fill:#b3b3b3;}</style></defs><title>Asset 3</title><g id="Layer_2" data-name="Layer 2"><g id="Layer_1-2" data-name="Layer 1"><path class="cls-1" d="M42.36,0A12.57,12.57,0,0,0,30.13,15.41,35.64,35.64,0,0,1,4.26,2.3,12.57,12.57,0,0,0,8.14,19.06a12.5,12.5,0,0,1-5.69-1.57c0,.05,0,.1,0,.16A12.56,12.56,0,0,0,12.53,30a12.58,12.58,0,0,1-5.67.22,12.57,12.57,0,0,0,11.73,8.72A25.19,25.19,0,0,1,3,44.26a25.46,25.46,0,0,1-3-.18,35.53,35.53,0,0,0,19.24,5.64C42.33,49.72,55,30.6,55,14q0-.82,0-1.62a25.51,25.51,0,0,0,6.26-6.5,25.09,25.09,0,0,1-7.21,2A12.59,12.59,0,0,0,59.5.92a25.13,25.13,0,0,1-8,3A12.53,12.53,0,0,0,42.36,0Z"/></g></g></svg>