<svg xmlns="http://www.w3.org/2000/svg" viewBox="0 0 284.03 312.51"><defs><style>.cls-1{fill:#48397c;}.cls-2{fill:#705ea5;}.cls-3{fill:#5f498e;}.cls-4{fill:#1e1142;}.cls-5{fill:#2c1954;}.cls-6{fill:#7e71b5;}.cls-7{fill:#3e2a75;}.cls-8{fill:#3ebace;}.cls-9{fill:#4087a3;}.cls-10{fill:#acf4fc;}.cls-11{fill:#50c3d6;}.cls-12{fill:#377289;}.cls-13{fill:#8ee0ed;}.cls-14{fill:#40aecc;}</style></defs><title>Asset 3</title><g id="Layer_2" data-name="Layer 2"><g id="Layer_1-2" data-name="Layer 1"><polygon class="cls-1" points="123.55 164.38 49.93 184.96 83.45 253.65 123.55 164.38"/><polygon class="cls-2" points="206.99 169.67 123.55 164.38 157.06 233.07 206.99 169.67"/><polygon class="cls-3" points="83.45 253.65 157.06 233.07 123.55 164.38 83.45 253.65"/><polygon class="cls-4" points="83.45 253.65 0 248.35 59.39 307.21 83.45 253.65"/><polygon class="cls-5" points="59.39 307.21 142.84 312.51 83.45 253.65 59.39 307.21"/><polygon class="cls-2" points="147.6 110.81 64.16 105.52 123.55 164.38 147.6 110.81"/><polygon class="cls-1" points="64.16 105.52 5.3 164.91 49.93 184.96 64.16 105.52"/><polygon class="cls-6" points="206.99 169.67 201.7 253.12 157.06 233.07 206.99 169.67"/><polygon class="cls-2" points="142.84 312.51 201.7 253.12 157.06 233.07 142.84 312.51"/><polygon class="cls-7" points="0 248.35 5.3 164.91 49.93 184.96 0 248.35"/><polygon class="cls-6" points="123.55 164.38 206.99 169.67 147.6 110.81 123.55 164.38"/><polygon class="cls-3" points="49.93 184.96 123.55 164.38 64.16 105.52 49.93 184.96"/><polygon class="cls-5" points="0 248.35 83.45 253.65 49.93 184.96 0 248.35"/><polygon class="cls-1" points="142.84 312.51 83.45 253.65 157.06 233.07 142.84 312.51"/><polygon class="cls-8" points="261.59 61.62 222.26 20.81 204.7 71.33 261.59 61.62"/><polygon class="cls-9" points="204.7 71.33 175 38.52 193.52 94.59 204.7 71.33"/><polygon class="cls-10" points="265.51 7.92 207 0 222.26 20.81 265.51 7.92"/><polygon class="cls-11" points="284.03 63.99 252.04 102.51 261.59 61.62 284.03 63.99"/><polygon class="cls-12" points="193.52 94.59 252.04 102.51 204.7 71.33 193.52 94.59"/><polygon class="cls-13" points="175 38.52 207 0 222.26 20.81 175 38.52"/><polygon class="cls-10" points="261.59 61.62 284.03 63.99 265.51 7.92 261.59 61.62"/><polygon class="cls-13" points="222.26 20.81 261.59 61.62 265.51 7.92 222.26 20.81"/><polygon class="cls-14" points="252.04 102.51 204.7 71.33 261.59 61.62 252.04 102.51"/><polygon class="cls-14" points="222.26 20.81 175 38.52 204.7 71.33 222.26 20.81"/></g></g></svg>