<svg xmlns="http://www.w3.org/2000/svg" viewBox="0 0 298.52 217.14"><defs><style>.cls-1{fill:#50c3d6;}.cls-2{fill:#8ee0ed;}.cls-3{fill:#4087a3;}.cls-10,.cls-4{fill:#fff;}.cls-4{opacity:0.1;}.cls-5{fill:#452f75;}.cls-6{fill:#2c1954;}.cls-7{fill:#5e4893;}.cls-8{fill:#5f498e;}.cls-9{fill:#462f77;}.cls-11{fill:#705ea5;}</style></defs><title>Asset 2</title><g id="Layer_2" data-name="Layer 2"><g id="Layer_1-2" data-name="Layer 1"><polygon class="cls-1" points="0 156.08 94.98 13.6 203.53 13.6 298.52 156.08 217.1 203.57 149.26 217.14 81.41 203.57 0 156.08"/><polygon class="cls-2" points="94.98 13.6 61.06 0.03 40.71 13.6 54.28 74.66 0 156.08 40.71 149.29 94.98 176.43 115.34 210.35 81.41 203.57 149.26 217.14 149.26 210.25 128.91 196.69 149.26 176.35 149.26 81.45 169.61 40.74 203.53 13.6 94.98 13.6"/><polygon class="cls-3" points="298.52 156.08 257.81 149.29 203.53 176.43 183.18 210.35 217.1 203.57 298.52 156.08"/><polygon class="cls-4" points="203.53 13.6 169.61 40.59 128.91 40.59 94.98 13.6 203.53 13.6"/><polygon class="cls-5" points="257.81 149.29 217.1 95.02 169.61 88.23 156.04 128.94 203.53 176.46 257.81 149.29"/><polygon class="cls-6" points="257.81 179.82 257.81 149.29 203.53 176.43 217.1 203.57 257.81 179.82"/><polygon class="cls-5" points="128.91 196.79 135.69 176.43 162.83 176.43 169.61 196.79 149.26 210.35 128.91 196.79"/><polygon class="cls-7" points="135.69 176.43 128.91 196.69 149.26 176.43 135.69 176.43"/><polygon class="cls-5" points="237.46 0.04 203.53 13.62 169.61 40.74 271.38 115.37 244.24 74.67 257.81 13.6 237.46 0.04"/><polygon class="cls-6" points="251.03 20.39 237.46 13.61 217.1 33.94 234.53 60.07 251.03 20.39"/><polygon class="cls-8" points="94.98 13.53 61.06 0 40.7 13.58 54.26 74.63 54.26 74.67 54.26 74.63 27.13 115.37 128.9 40.74 149.26 81.38 169.61 40.59 128.91 40.59 94.98 13.53"/><polygon class="cls-5" points="47.49 20.39 61.06 13.61 81.41 33.94 63.99 60.07 47.49 20.39"/><polygon class="cls-9" points="40.71 179.82 40.71 149.29 94.98 176.43 81.41 203.57 40.71 179.82"/><polygon class="cls-8" points="81.41 95.02 40.71 149.29 94.98 176.44 142.47 128.94 128.91 88.23 81.41 95.02"/><circle class="cls-10" cx="115.34" cy="115.32" r="6.78"/><circle class="cls-10" cx="183.18" cy="115.32" r="6.78"/><polygon class="cls-11" points="203.53 13.6 169.61 40.59 128.91 40.59 94.98 13.6 203.53 13.6"/></g></g></svg>